<svg width="26" height="26" viewBox="0 0 26 26" fill="none" xmlns="http://www.w3.org/2000/svg">
<g clip-path="url(#clip0_20_8)">
<path fill-rule="evenodd" clip-rule="evenodd" d="M9.13387 16.9727L8.4989 16.3104L7.99309 15.3671L5.70283 2.90983C5.65249 2.6368 5.46484 2.40903 5.20605 2.30761L1.45501 0.835515C1.04159 0.673828 0.575087 0.876678 0.412727 1.28915C0.250647 1.70186 0.453653 2.16815 0.866842 2.33034L4.20212 3.63924L6.5328 16.3151C6.60305 16.6962 6.9355 16.973 7.32352 16.973H7.71013L6.8273 19.4226C6.75341 19.6278 6.78385 19.8557 6.9096 20.034C7.03518 20.2123 7.23942 20.3184 7.45746 20.3184H8.07668C7.69298 20.7449 7.45746 21.3066 7.45746 21.9243C7.45746 23.2526 8.53943 24.3332 9.86886 24.3332C11.1983 24.3332 12.2803 23.2526 12.2803 21.9243C12.2803 21.3067 12.0447 20.7449 11.6611 20.3184H16.9186C16.5347 20.7449 16.2992 21.3066 16.2992 21.9243C16.2992 23.2526 17.3809 24.3332 18.7107 24.3332C20.0404 24.3332 21.1221 23.2526 21.1221 21.9243C21.1221 21.3067 20.8866 20.7449 20.503 20.3184H21.2561C21.6261 20.3184 21.9259 20.0188 21.9259 19.6493C21.9259 19.2796 21.626 18.9801 21.2561 18.9801H8.41054L9.13387 16.9727ZM8.79715 21.9246C8.79715 22.515 9.27784 22.9952 9.86892 22.9952C10.46 22.9952 10.9406 22.515 10.9406 21.9246C10.9406 21.3341 10.46 20.8539 9.86892 20.8539C9.27784 20.8539 8.79715 21.3341 8.79715 21.9246ZM17.6389 21.9246C17.6389 22.515 18.1196 22.9952 18.7107 22.9952C19.3017 22.9952 19.7824 22.515 19.7824 21.9246C19.7824 21.3341 19.3017 20.8539 18.7107 20.8539C18.1196 20.8539 17.6389 21.3341 17.6389 21.9246Z" fill="white"/>
<path d="M25.2645 5.27217C25.1211 5.06686 24.8904 4.93995 24.6397 4.92925L9.09962 4.26011C8.65374 4.24062 8.28114 4.58449 8.26208 5.02782C8.24313 5.47099 8.5868 5.84544 9.03054 5.86448L23.5186 6.48838L20.6699 15.3671H7.99309L8.4989 16.3104L9.13387 16.9727H21.256C21.6056 16.9727 21.9149 16.7471 22.0213 16.4149L25.3705 5.97632C25.4474 5.73808 25.408 5.4776 25.2645 5.27217Z" fill="#FFC700"/>
</g>
<defs>
<clipPath id="clip0_20_8">
<rect width="25.0522" height="25.026" fill="white" transform="translate(0.356934 0.0435791)"/>
</clipPath>
</defs>
</svg>
