<svg width="26" height="26" viewBox="0 0 26 26" fill="none" xmlns="http://www.w3.org/2000/svg">
<g clip-path="url(#clip0_20_2)">
<path fill-rule="evenodd" clip-rule="evenodd" d="M15.4027 2.20683C16.3116 1.81273 17.2917 1.60882 18.2825 1.60767C20.2024 1.60974 22.0432 2.37256 23.4008 3.72876C24.7584 5.08497 25.522 6.92378 25.5241 8.84174C25.5241 16.0445 13.8944 23.1144 13.4129 23.392C13.2912 23.4651 13.1518 23.5037 13.0098 23.5037L12.998 21.8005C15.0218 20.5062 23.9584 14.4765 23.9584 8.84174C23.9585 7.63629 23.5741 6.46215 22.8609 5.48977C22.1477 4.51739 21.1428 3.79739 19.9921 3.43429C18.8415 3.07118 17.6049 3.08388 16.4619 3.47052C15.319 3.85717 14.3291 4.59764 13.6361 5.58445C13.5638 5.68692 13.4679 5.77054 13.3566 5.82826C13.2452 5.88597 13.1215 5.9161 12.9961 5.9161L12.998 3.89911C13.6755 3.17687 14.4939 2.60094 15.4027 2.20683Z" fill="white"/>
<path d="M12.998 3.89911C12.0052 2.84063 10.7168 2.10474 9.30005 1.78696C7.8833 1.46919 6.40364 1.58421 5.05315 2.11709C3.70266 2.64998 2.54372 3.57612 1.72678 4.77528C0.909844 5.97444 0.472639 7.39123 0.471924 8.84174C0.471924 16.0445 12.1016 23.1144 12.6066 23.392C12.7283 23.4651 12.8677 23.5037 13.0098 23.5037L12.998 21.8005C10.9743 20.5101 2.03769 14.4804 2.03769 8.84174C2.03869 7.63734 2.42359 6.46455 3.1366 5.49334C3.8496 4.52213 4.85368 3.80295 6.0033 3.44004C7.15292 3.07713 8.38837 3.08934 9.53058 3.4749C10.6728 3.86046 11.6624 4.59934 12.3561 5.58445C12.4283 5.68692 12.5242 5.77054 12.6356 5.82826C12.7469 5.88597 12.8706 5.9161 12.9961 5.9161L12.998 3.89911Z" fill="#FFC700"/>
</g>
<defs>
<clipPath id="clip0_20_2">
<rect width="25.0522" height="25.026" fill="white" transform="translate(0.471924 0.0435791)"/>
</clipPath>
</defs>
</svg>
