<svg width="16" height="16" viewBox="0 0 16 16" fill="none" xmlns="http://www.w3.org/2000/svg">
<path d="M13.5221 12.3833L10.7183 9.58244C11.3815 8.77347 11.7808 7.74021 11.7808 6.61498C11.7808 4.02761 9.6736 1.92261 7.08352 1.92261C4.49343 1.92261 2.38623 4.02761 2.38623 6.61498C2.38623 9.20235 4.49343 11.3074 7.08352 11.3074C8.20993 11.3074 9.24427 10.9085 10.0541 10.2459L12.8579 13.0468C13.0416 13.2303 13.3384 13.2303 13.5221 13.0468C13.7058 12.8633 13.7058 12.5668 13.5221 12.3833ZM3.32569 6.61498C3.32569 4.54517 5.01154 2.86108 7.08352 2.86108C9.15549 2.86108 10.8413 4.54517 10.8413 6.61498C10.8413 8.68479 9.15549 10.3689 7.08352 10.3689C5.01154 10.3689 3.32569 8.68479 3.32569 6.61498Z" fill="#FFC700"/>
</svg>
